<?xml version="1.0" encoding="UTF-8"?> <!-- Generator: Adobe Illustrator 24.0.0, SVG Export Plug-In . SVG Version: 6.00 Build 0) --> <svg xmlns="http://www.w3.org/2000/svg" xmlns:xlink="http://www.w3.org/1999/xlink" version="1.1" id="Layer_1" x="0px" y="0px" viewBox="0 0 896 175.3" style="enable-background:new 0 0 896 175.3;" xml:space="preserve"> <style type="text/css"> .st0{clip-path:url(#SVGID_2_);} .st1{fill:#0D1529;} </style> <g> <g> <defs> <rect id="SVGID_1_" y="1.1" width="896" height="173"></rect> </defs> <clipPath id="SVGID_2_"> <use xlink:href="#SVGID_1_" style="overflow:visible;"></use> </clipPath> <g class="st0"> <path class="st1" d="M30.5,87.7H0c0,0,34.5-68.1,84.3-86.5C52.8,41.9,30.5,87.7,30.5,87.7z"></path> <path class="st1" d="M76.1,87.7h30.5c0,0-34.5,68.1-84.3,86.5C53.8,132.4,76.1,87.7,76.1,87.7z"></path> <path class="st1" d="M250.6,56.1v12.2h-35.5c-6.1,0-8.2,2-8.2,7.1c0,4.1,2,7.1,9.1,7.1h15.3c17.3,0,22.3,8.2,22.3,18.3 c0,11.2-6.1,19.4-21.4,19.4h-37.6V108h37.7c6.1,0,8.2-2,8.2-7.1c0-5.1-3-7.1-9.1-7.1h-15.2c-17.3,0-22.3-9.1-22.3-18.3 c0-11.2,6.1-18.3,21.4-18.3h35.5v-1H250.6z"></path> <path class="st1" d="M325.7,56.1l6.1,49.8c0,3,2,4.1,5,4.1c3,0,4.1-1,5-3l9.1-38.6c2-8.2,7.1-13.2,17.3-13.2 c10.2,0,15.2,4.1,17.3,13.2l8.2,38.6c0,2,2,3,5,3c3,0,4.1-1,4.1-4.1l7.1-49.8h14.2L417,107c-1,9.1-6.1,15.3-18.2,15.3 c-10.2,0-15.2-4.1-17.3-13.2l-8.2-38.6c0-2-2-3-5-3c-3,0-4.1,1-5,3l-9.1,38.6c-2,9.1-7.1,13.2-17.3,13.2 c-12.1,0-16.2-6.1-17.3-15.3l-7.1-50.9H325.7z"></path> <path class="st1" d="M551,56.1l-38.5,89.6h-14.2l12.1-28.5c-7.1,0-10.2-2-12.1-8.2l-21.4-53h13.2l19.3,47.8c1,2,1,3,4.1,3h2 l21.4-50.9L551,56.1L551,56.1z"></path> <path class="st1" d="M615.9,56.1V40.8h13.2v15.3h17.3v12.2h-17.3v30.6c0,7.1,3,9.1,8.2,9.1h9.1v12.2h-11.2 c-13.2,0-19.3-5.1-19.3-22.4V68.3h-9.1V56.1H615.9z"></path> <path class="st1" d="M765.1,56.1v12.2h-31.5c-11.2,0-16.2,6.1-16.2,19.4c0,13.2,5,19.4,16.2,19.4h31.5v12.2h-32.4 c-17.3,0-27.4-10.2-27.4-32.6s11.2-32.6,27.4-32.6h32.4V56.1z"></path> <path class="st1" d="M841.3,28.7v27.4h22.3c21.4,0,32.4,10.2,32.4,28.5v35.6h-13.2V84.6c0-10.2-6.1-15.3-19.3-15.3h-22.3v51.9 H828V29.6h13.2v-0.9H841.3z"></path> </g> </g> </g> </svg> 